<svg width="25" height="27" viewBox="0 0 25 27" fill="none" xmlns="http://www.w3.org/2000/svg">
<path d="M2.93059 17.3998L1.61114 23.5498C1.56563 23.7746 1.56719 24.0076 1.61571 24.2317C1.66423 24.4557 1.75849 24.6653 1.8916 24.845C2.02472 25.0247 2.19331 25.17 2.38509 25.2703C2.57686 25.3706 2.78696 25.4234 3.00003 25.4248C3.09932 25.4356 3.19936 25.4356 3.29864 25.4248L9.02781 23.9998L20.0278 12.1648L13.8889 5.5498L2.93059 17.3998Z" fill="#5AC97A"/>
<path d="M23.486 6.24022L19.3888 1.81522C19.1194 1.52577 18.7549 1.36328 18.3749 1.36328C17.9949 1.36328 17.6304 1.52577 17.361 1.81522L15.0833 4.27522L21.2152 10.8977L23.493 8.43772C23.6263 8.29303 23.7318 8.12137 23.8036 7.93257C23.8755 7.74377 23.9121 7.54152 23.9114 7.33742C23.9108 7.13331 23.8729 6.93134 23.7999 6.74307C23.7269 6.5548 23.6202 6.38393 23.486 6.24022Z" fill="#5AC97A"/>
</svg>
