<svg width="35" height="46" viewBox="0 0 35 46" fill="none" xmlns="http://www.w3.org/2000/svg">
<path fill-rule="evenodd" clip-rule="evenodd" d="M17.5 46C19.6389 46 21.3694 44.0958 21.3694 41.7423H13.6306C13.6306 44.0958 15.3611 46 17.5 46ZM31.1111 33.1628V20.3256C31.1111 13.1581 26.5222 7.16744 20.4167 5.71256V3.2093C20.4167 1.43349 19.1139 0 17.5 0C15.8861 0 14.5833 1.43349 14.5833 3.2093V5.71256C8.47778 7.16744 3.88889 13.1581 3.88889 20.3256V33.1628L0 37.4419V39.5814H35V37.4419L31.1111 33.1628ZM19.4444 31.0233H15.5556V26.7442H19.4444V31.0233ZM19.4444 22.4651H15.5556V13.907H19.4444V22.4651Z" fill="white"/>
</svg>
